<?xml version="1.0" encoding="utf-8"?>
<!-- Svg Vector Icons : http://www.onlinewebfonts.com/icon -->
<!DOCTYPE svg PUBLIC "-//W3C//DTD SVG 1.1//EN" "http://www.w3.org/Graphics/SVG/1.1/DTD/svg11.dtd">
<svg version="1.1" xmlns="http://www.w3.org/2000/svg" xmlns:xlink="http://www.w3.org/1999/xlink" x="0px" y="0px" viewBox="0 0 1000 1000" enable-background="new 0 0 1000 1000" xml:space="preserve" fill="#55b7ff" width="16px">
<metadata> Svg Vector Icons : http://www.onlinewebfonts.com/icon </metadata>
<g><path d="M974.1,481.5L822.2,129.3c-4.3-10.6-12-19.6-23.3-26.8c-11.3-7.2-22.4-10.8-33.5-10.8H234.6c-11.1,0-22.2,3.6-33.5,10.8c-11.3,7.2-19,16.2-23.3,26.8L26,481.5c-10.6,25.9-16,52.1-16,78.5v307.5c0,11.1,4,20.6,12.1,28.7c8.1,8.1,17.7,12.1,28.7,12.1h898.3c11.1,0,20.6-4,28.7-12.1c8.1-8.1,12.1-17.7,12.1-28.7V560C990,533.6,984.7,507.4,974.1,481.5z M662.7,540.8l-60.6,122.5H397.9l-60.6-122.5H135.7c0.4-0.8,1-2.5,1.6-5.1c0.6-2.5,1.2-4.3,1.6-5.1l135.3-316.5h451.7l135.3,316.5c0.4,1.3,1,3,1.6,5.1c0.6,2.1,1.2,3.8,1.6,5.1H662.7z"/></g>
</svg>